<?xml version="1.0" standalone="no"?><svg xmlns="http://www.w3.org/2000/svg" viewBox="0 0 1440 320"><path fill="#0099ff" fill-opacity="1" d="M0,0L26.7,21.3C53.3,43,107,85,160,122.7C213.3,160,267,192,320,181.3C373.3,171,427,117,480,122.7C533.3,128,587,192,640,208C693.3,224,747,192,800,176C853.3,160,907,160,960,149.3C1013.3,139,1067,117,1120,138.7C1173.3,160,1227,224,1280,234.7C1333.3,245,1387,203,1413,181.3L1440,160L1440,0L1413.3,0C1386.7,0,1333,0,1280,0C1226.7,0,1173,0,1120,0C1066.7,0,1013,0,960,0C906.7,0,853,0,800,0C746.7,0,693,0,640,0C586.7,0,533,0,480,0C426.7,0,373,0,320,0C266.7,0,213,0,160,0C106.7,0,53,0,27,0L0,0Z"></path></svg>